<svg width="371" height="70" viewBox="0 0 371 70" fill="none" xmlns="http://www.w3.org/2000/svg">
<g clip-path="url(#clip0_146_696)">
<path d="M276.863 17.5732C279.763 17.5732 282.396 17.9363 284.762 18.6626C287.128 19.3889 289.125 20.3281 290.753 21.4801C291.771 22.1813 292.572 22.9577 293.158 23.8092C293.743 24.6607 294.035 25.7627 294.035 27.1151V53.4117L294.023 54.1267C293.939 56.4801 293.434 58.5333 292.509 60.2864C291.491 62.2148 290.105 63.8177 288.349 65.0949C286.594 66.3722 284.533 67.3114 282.167 67.9124C279.801 68.5135 277.27 68.814 274.573 68.814C269.943 68.814 266.305 68.2004 263.659 66.9733C261.013 65.7461 259.69 63.7551 259.69 61.0002C259.69 59.8481 259.932 58.8338 260.415 57.9573C260.898 57.0807 261.445 56.417 262.056 55.9662C263.532 56.7677 265.198 57.4439 267.055 57.9948C268.912 58.5458 270.833 58.8213 272.818 58.8213C275.565 58.8213 277.753 58.3705 279.381 57.4689C281.009 56.5673 281.824 55.1147 281.824 53.1112V51.9091L281.243 52.1438C279.271 52.8889 276.92 53.2615 274.191 53.2615C271.902 53.2615 269.726 52.9233 267.666 52.2472C265.605 51.571 263.799 50.5191 262.247 49.0916C260.695 47.664 259.448 45.8233 258.507 43.5693C257.566 41.3153 257.095 38.6355 257.095 35.53C257.095 32.4746 257.591 29.8199 258.583 27.5659C259.576 25.3119 260.949 23.4461 262.705 21.9685C264.46 20.4909 266.546 19.3889 268.963 18.6626C271.38 17.9363 274.013 17.5732 276.863 17.5732ZM71.4235 18.7396C75.9611 18.7396 79.6741 19.7419 82.5626 21.7465C85.4511 23.7511 87.161 27.2919 87.6922 32.3688H77.9974L77.9046 31.8072C77.685 30.6999 77.2622 29.6887 76.6362 28.7735C75.5737 27.3355 73.9247 26.6164 71.6891 26.6164C68.5018 26.6164 66.3216 28.1743 65.1485 31.2902C64.5287 32.9462 64.2188 35.1469 64.2188 37.8924C64.2188 40.5071 64.5287 42.6098 65.1485 44.2004C66.2773 47.1638 68.4022 48.6454 71.5231 48.6454C73.7366 48.6454 75.3081 48.0571 76.2377 46.8805C77.1674 45.7039 77.7318 44.1786 77.931 42.3047H87.5926L87.527 42.9557C87.2064 45.5488 86.1879 48.0119 84.4717 50.345C81.5057 54.4196 77.112 56.4569 71.2907 56.4569C65.4694 56.4569 61.1864 54.7573 58.4418 51.3582C55.6971 47.9591 54.3248 43.5467 54.3248 38.1212C54.3248 31.9984 55.841 27.2374 58.8734 23.8383C61.9058 20.4391 66.0892 18.7396 71.4235 18.7396ZM159.356 18.6415C162.366 18.6415 165.078 19.1971 167.49 20.3084C169.903 21.4196 171.895 23.1737 173.467 25.5705C174.883 27.6841 175.802 30.1354 176.222 32.9244C176.466 34.5586 176.566 36.9119 176.521 39.9842H151.753L151.787 40.6037C152.023 43.8487 153.152 46.148 155.173 47.5015C156.479 48.3948 158.05 48.8415 159.887 48.8415C161.835 48.8415 163.418 48.2968 164.635 47.2073C165.299 46.619 165.886 45.8019 166.395 44.756H176.056L175.985 45.2444C175.636 47.2 174.542 49.1835 172.703 51.1948C169.604 54.6593 165.266 56.3915 159.688 56.3915C155.084 56.3915 151.023 54.9316 147.503 52.0119C143.984 49.0921 142.224 44.342 142.224 37.7617C142.224 31.5953 143.812 26.867 146.989 23.5768C150.165 20.2866 154.287 18.6415 159.356 18.6415ZM225.796 5.55187C226.915 5.55187 227.92 5.627 228.811 5.77727C229.701 5.92753 230.452 6.22807 231.062 6.67887C231.673 7.12967 232.143 7.74325 232.474 8.51963C232.805 9.29601 232.97 10.3103 232.97 11.5625V55.1398L232.714 55.185C232.169 55.2801 231.427 55.4027 230.49 55.553C229.396 55.7283 228.289 55.816 227.17 55.816C226.05 55.816 225.045 55.7408 224.155 55.5906C223.264 55.4403 222.514 55.1398 221.903 54.689C221.293 54.2382 220.822 53.6246 220.491 52.8482C220.161 52.0718 219.995 51.0575 219.995 49.8053V6.22807L220.252 6.18283C220.797 6.08777 221.538 5.9651 222.476 5.81483C223.57 5.63952 224.676 5.55187 225.796 5.55187ZM245.3 18.5499C246.419 18.5499 247.424 18.625 248.314 18.7753C249.205 18.9256 249.955 19.2261 250.566 19.6769C251.177 20.1277 251.647 20.7413 251.978 21.5177C252.309 22.2941 252.474 23.3083 252.474 24.5606V55.1398L252.218 55.185C251.673 55.2801 250.931 55.4027 249.994 55.553C248.9 55.7283 247.793 55.816 246.674 55.816C245.554 55.816 244.549 55.7408 243.659 55.5906C242.768 55.4403 242.018 55.1398 241.407 54.689C240.797 54.2382 240.326 53.6246 239.995 52.8482C239.665 52.0718 239.499 51.0575 239.499 49.8053V19.2261L239.755 19.1809C240.301 19.0858 241.042 18.9631 241.98 18.8129C243.074 18.6376 244.18 18.5499 245.3 18.5499ZM306.059 5.55187C307.179 5.55187 308.184 5.627 309.074 5.77727C309.965 5.92753 310.715 6.22807 311.326 6.67887C311.936 7.12967 312.407 7.74325 312.738 8.51963C313.068 9.29601 313.234 10.3103 313.234 11.5625V18.9256L313.498 18.8299C314.152 18.6025 315.069 18.3464 316.249 18.0615C317.597 17.736 319.085 17.5732 320.713 17.5732C325.751 17.5732 329.681 18.8129 332.505 21.2923C335.329 23.7717 336.741 27.4657 336.741 32.3744V55.1398L336.505 55.2042C335.997 55.333 335.275 55.4618 334.337 55.5906C333.243 55.7408 332.111 55.816 330.941 55.816C329.821 55.816 328.816 55.7408 327.926 55.5906C327.036 55.4403 326.285 55.1398 325.674 54.689C325.064 54.2382 324.593 53.6246 324.262 52.8482C323.932 52.0718 323.766 51.0575 323.766 49.8053V33.1258L323.757 32.6627C323.683 30.8542 323.165 29.5685 322.202 28.8056C321.159 27.9791 319.874 27.5659 318.347 27.5659C317.33 27.5659 316.363 27.6911 315.447 27.9416C314.531 28.192 313.794 28.4925 313.234 28.8432V55.1398L312.998 55.2042C312.49 55.333 311.767 55.4618 310.83 55.5906C309.736 55.7408 308.604 55.816 307.433 55.816C306.314 55.816 305.309 55.7408 304.419 55.5906C303.528 55.4403 302.778 55.1398 302.167 54.689C301.556 54.2382 301.086 53.6246 300.755 52.8482C300.424 52.0718 300.259 51.0575 300.259 49.8053V6.22807L300.515 6.18283C301.06 6.08777 301.802 5.9651 302.739 5.81483C303.833 5.63952 304.94 5.55187 306.059 5.55187ZM214.687 9.68419L214.862 9.97534C215.149 10.4867 215.408 11.1284 215.641 11.9006C215.921 12.8273 216.061 13.7915 216.061 14.7933C216.061 16.7467 215.641 18.1367 214.802 18.9631C213.962 19.7896 212.83 20.2028 211.406 20.2028H195.378V28.6929H212.092L212.291 28.983C212.612 29.4908 212.89 30.1204 213.123 30.8718C213.403 31.7734 213.543 32.725 213.543 33.7268C213.543 35.6302 213.123 36.9951 212.283 37.8216C211.444 38.648 210.312 39.0613 208.887 39.0613H195.53V54.9144L195.271 54.9788C194.714 55.1076 193.922 55.2364 192.897 55.3652C191.702 55.5154 190.519 55.5906 189.348 55.5906C188.178 55.5906 187.148 55.5029 186.257 55.3276C185.367 55.1523 184.616 54.8392 184.006 54.3884C183.395 53.9376 182.937 53.3115 182.632 52.5101C182.327 51.7087 182.174 50.6568 182.174 49.3545V16.6716L182.187 16.1425C182.284 14.2371 182.916 12.7104 184.082 11.5625C185.354 10.3103 187.084 9.68419 189.272 9.68419H214.687ZM35.3013 7.10405V15.5692H10.7655V26.6491H32.2468V35.0162H10.7655V55.2149H0.605835V7.10405H35.3013ZM49.1624 19.5893V55.2149H39.5672V19.5893H49.1624ZM101.454 7.2021V33.1532L113.24 19.7528H124.96L112.311 33.382L125.458 55.2149H114.037L105.372 39.9842L101.454 44.0043V55.2149H92.1573V7.2021H101.454ZM137.792 7.03868V55.2149H128.33V7.03868H137.792ZM337.448 9.37521C339.034 8.90568 341.741 8.80124 344.91 10.1808C348.109 11.5735 350.104 13.9623 350.896 17.3472L368.068 18.7839C368.281 18.7961 368.492 18.8385 368.703 18.9112C369.018 19.0202 369.188 19.1736 369.33 19.2936C369.678 19.5881 369.792 19.8151 369.958 20.2215C370.253 20.9444 370.164 21.7951 369.779 22.3784C369.158 23.3189 368.187 23.9274 366.866 24.2039L353.003 27.1047L355.45 38.4384C355.731 39.7394 356.35 40.5774 357.307 40.9523C358.265 41.3273 359.506 41.3552 361.031 41.0361C361.794 40.8766 362.568 40.6492 363.354 40.3539C364.141 40.0586 364.817 39.7471 365.384 39.4193C365.96 39.874 366.486 40.4045 366.963 41.0109C367.439 41.6173 367.78 42.3959 367.985 43.3466C368.744 46.8612 363.124 50.1816 359.441 50.8333C356.03 51.4367 350.795 51.938 347.803 44.221C344.811 36.504 340.111 23.5684 336.523 12.7884C336.214 11.8581 336.022 10.9444 336.355 10.1904C336.535 9.78291 336.665 9.607 337.448 9.37521ZM277.473 27.5659C274.98 27.5659 273.11 28.2546 271.863 29.6321C270.617 31.0095 269.994 32.9755 269.994 35.53C269.994 38.4352 270.617 40.5264 271.863 41.8036C273.11 43.0809 274.7 43.7195 276.634 43.7195C278.72 43.7195 280.373 43.2437 281.595 42.292V28.4675L281.361 28.3473C281.023 28.187 280.58 28.0267 280.03 27.8664C279.343 27.6661 278.491 27.5659 277.473 27.5659ZM159.356 26.3222C157.165 26.3222 155.466 26.9977 154.26 28.3487C153.053 29.6996 152.295 31.5299 151.985 33.8396H166.694C166.539 31.3774 165.781 29.5089 164.419 28.2343C163.058 26.9596 161.37 26.3222 159.356 26.3222ZM49.1624 6.74453V15.3404H39.5672V6.74453H49.1624ZM245.987 1.79521C248.124 1.79521 249.841 2.44636 251.138 3.74867C252.436 5.05098 253.085 6.65382 253.085 8.5572C253.085 10.4606 252.436 12.0634 251.138 13.3657C249.841 14.668 248.124 15.3192 245.987 15.3192C243.85 15.3192 242.132 14.668 240.835 13.3657C239.537 12.0634 238.889 10.4606 238.889 8.5572C238.889 6.65382 239.537 5.05098 240.835 3.74867C242.132 2.44636 243.85 1.79521 245.987 1.79521Z" fill="white"/>
</g>
<defs>
<clipPath id="clip0_146_696">
<rect width="370.184" height="69.1132" fill="white" transform="translate(0.605835 0.694611)"/>
</clipPath>
</defs>
</svg>
