<svg width="68" height="16" viewBox="0 0 68 16" fill="none" xmlns="http://www.w3.org/2000/svg">
<rect opacity="0.35" x="43.5" y="2.83334" width="21" height="10.3333" rx="2.16667" stroke="black"/>
<path opacity="0.4" d="M66 6V10C66.8079 9.66122 67.3333 8.87313 67.3333 8C67.3333 7.12687 66.8079 6.33878 66 6Z" fill="black"/>
<rect x="45" y="4.33334" width="18" height="7.33333" rx="1.33333" fill="black"/>
<path fill-rule="evenodd" clip-rule="evenodd" d="M30.3336 4.57391C32.5583 4.574 34.698 5.4117 36.3104 6.91385C36.4318 7.02982 36.6258 7.02836 36.7454 6.91057L37.906 5.76273C37.9666 5.70299 38.0003 5.62207 37.9998 5.53787C37.9993 5.45367 37.9646 5.37314 37.9033 5.3141C33.6714 1.33976 26.9951 1.33976 22.7632 5.3141C22.7019 5.3731 22.6671 5.4536 22.6665 5.5378C22.6659 5.622 22.6996 5.70295 22.7601 5.76273L23.9211 6.91057C24.0406 7.02853 24.2348 7.03 24.3562 6.91385C25.9687 5.4116 28.1086 4.5739 30.3336 4.57391ZM30.332 8.29946C31.5557 8.29939 32.7358 8.75599 33.6429 9.58055C33.7656 9.69757 33.9588 9.69503 34.0784 9.57483L35.239 8.39767C35.3001 8.33593 35.334 8.25216 35.3332 8.16512C35.3323 8.07808 35.2967 7.99503 35.2343 7.93454C32.472 5.35517 28.1943 5.35517 25.432 7.93454C25.3696 7.99503 25.334 8.07812 25.3332 8.16519C25.3324 8.25226 25.3664 8.33601 25.4276 8.39767L26.5879 9.57483C26.7075 9.69503 26.9008 9.69757 27.0234 9.58055C27.9299 8.75653 29.1091 8.29997 30.332 8.29946ZM32.6664 11.0231C32.6682 11.1085 32.6339 11.1909 32.5716 11.2508L30.5569 13.2419C30.4978 13.3004 30.4173 13.3333 30.3333 13.3333C30.2492 13.3333 30.1687 13.3004 30.1097 13.2419L28.0946 11.2508C28.0323 11.1908 27.9981 11.1084 27.9999 11.023C28.0018 10.9375 28.0395 10.8566 28.1043 10.7993C29.391 9.73357 31.2755 9.73357 32.5622 10.7993C32.6269 10.8567 32.6647 10.9376 32.6664 11.0231Z" fill="black"/>
<path fill-rule="evenodd" clip-rule="evenodd" d="M17.6665 3.66666C17.6665 3.11437 17.2188 2.66666 16.6665 2.66666H15.6665C15.1142 2.66666 14.6665 3.11437 14.6665 3.66666V12.3333C14.6665 12.8856 15.1142 13.3333 15.6665 13.3333H16.6665C17.2188 13.3333 17.6665 12.8856 17.6665 12.3333V3.66666ZM10.9998 4.99999H11.9998C12.5521 4.99999 12.9998 5.44771 12.9998 5.99999V12.3333C12.9998 12.8856 12.5521 13.3333 11.9998 13.3333H10.9998C10.4476 13.3333 9.99984 12.8856 9.99984 12.3333V5.99999C9.99984 5.44771 10.4476 4.99999 10.9998 4.99999ZM7.33317 7.33332H6.33317C5.78089 7.33332 5.33317 7.78104 5.33317 8.33332V12.3333C5.33317 12.8856 5.78089 13.3333 6.33317 13.3333H7.33317C7.88546 13.3333 8.33317 12.8856 8.33317 12.3333V8.33332C8.33317 7.78104 7.88546 7.33332 7.33317 7.33332ZM3.6665 10.3333C3.6665 9.78104 3.21879 9.33332 2.6665 9.33332H1.6665C1.11422 9.33332 0.666504 9.78104 0.666504 10.3333V12.3333C0.666504 12.8856 1.11422 13.3333 1.6665 13.3333H2.6665C3.21879 13.3333 3.6665 12.8856 3.6665 12.3333V10.3333Z" fill="black"/>
</svg>
